<?xml version="1.0" standalone="no"?>
<!DOCTYPE svg PUBLIC "-//W3C//DTD SVG 20010904//EN"
 "http://www.w3.org/TR/2001/REC-SVG-20010904/DTD/svg10.dtd">
<svg version="1.0" xmlns="http://www.w3.org/2000/svg"
 width="512.000000pt" height="512.000000pt" viewBox="0 0 512.000000 512.000000"
 preserveAspectRatio="xMidYMid meet">
<metadata>
Created by potrace 1.11, written by Peter Selinger 2001-2013
</metadata>
<g transform="translate(0.000000,512.000000) scale(0.100000,-0.100000)"
fill="#000000" stroke="none">
<path d="M0 2560 l0 -2560 2560 0 2560 0 0 2560 0 2560 -2560 0 -2560 0 0
-2560z m2715 2381 c55 -11 141 -27 190 -36 50 -9 100 -18 111 -20 12 -3 24
-15 27 -27 15 -64 206 -528 228 -554 5 -7 9 -28 7 -47 -1 -19 3 -42 10 -50 10
-12 7 -25 -17 -71 -34 -64 -172 -247 -207 -275 -13 -10 -24 -21 -24 -23 0 -2
19 -5 43 -6 46 -3 223 -21 247 -26 19 -4 67 -25 59 -25 -3 -1 1 -33 10 -73
l16 -72 73 -18 c40 -10 81 -27 92 -38 11 -11 26 -20 33 -20 19 0 72 -59 96
-107 13 -26 21 -61 21 -91 0 -53 -24 -137 -47 -164 -13 -15 -10 -22 29 -70 58
-71 158 -225 158 -243 0 -7 15 -19 34 -25 49 -16 106 -92 106 -141 0 -43 -14
-86 -37 -112 -9 -10 -17 -38 -18 -65 -2 -29 -25 -108 -64 -210 -44 -116 -59
-167 -53 -180 5 -9 12 -56 16 -104 3 -48 15 -149 26 -224 22 -147 17 -199 -18
-201 -9 0 -33 -3 -52 -6 -19 -4 -80 -11 -135 -17 -55 -6 -118 -13 -139 -16
l-39 -6 7 -197 c8 -220 21 -381 35 -426 13 -41 19 -109 27 -322 l7 -181 -54
-27 c-30 -15 -61 -33 -69 -40 -8 -8 -46 -23 -85 -34 -38 -11 -128 -40 -200
-66 -196 -69 -204 -72 -285 -95 -41 -12 -80 -26 -86 -31 -6 -5 -13 -6 -17 -3
-3 3 -43 8 -89 11 -121 6 -403 63 -489 98 -10 3 -20 2 -24 -4 -3 -6 -13 -11
-21 -11 -8 0 -13 4 -9 9 3 5 1 12 -5 16 -5 3 -10 2 -10 -3 0 -5 -6 -9 -12 -9
-7 0 -54 -15 -104 -32 -51 -17 -110 -31 -131 -31 -21 0 -43 -4 -49 -10 -42
-42 -421 -55 -450 -16 -48 67 -47 304 3 458 20 62 88 129 172 170 l68 33 7
110 c14 219 36 501 43 534 l6 34 -70 -7 c-91 -9 -95 -4 -98 122 -2 53 -4 102
-4 108 -1 7 -25 19 -53 29 -63 20 -83 37 -111 90 -57 113 12 328 124 386 l39
19 2 68 c1 37 3 112 4 167 2 55 4 337 6 628 l3 527 23 0 c25 0 344 61 351 67
3 2 -36 43 -86 91 -49 48 -93 94 -97 102 -4 8 -13 25 -20 38 -9 15 -11 37 -6
70 5 26 11 76 15 112 4 36 8 67 10 70 1 3 6 37 9 75 4 39 9 77 11 85 2 8 14
92 25 185 12 94 25 174 30 178 9 10 125 50 295 102 61 19 155 50 211 69 55 19
121 37 146 41 28 4 49 13 53 22 6 18 59 14 220 -16z"/>
<path d="M2550 4861 c0 -16 120 -565 125 -569 8 -8 166 -22 325 -28 90 -3 168
-8 172 -10 5 -3 8 -2 8 3 0 7 -119 282 -125 291 -1 1 -29 -13 -61 -32 -32 -19
-86 -49 -118 -66 -57 -29 -60 -30 -78 -13 -62 56 -65 168 -6 231 30 31 51 28
151 -21 48 -23 87 -38 86 -32 0 5 -14 48 -32 94 l-32 85 -190 38 c-204 40
-225 43 -225 29z m116 -57 c9 -34 -7 -48 -45 -39 -40 8 -59 40 -34 54 10 6 30
11 45 11 21 0 29 -6 34 -26z m14 -105 c0 -24 -4 -29 -26 -29 -28 0 -64 16 -64
29 0 13 61 40 77 34 7 -3 13 -18 13 -34z m34 -95 c6 -17 -9 -54 -23 -54 -5 0
-23 3 -40 6 -24 5 -31 12 -31 30 0 23 14 31 61 33 16 1 29 -5 33 -15z m24
-148 c5 -38 -7 -48 -47 -40 -66 14 -54 79 14 72 25 -2 31 -8 33 -32z"/>
<path d="M2315 4804 c-55 -19 -172 -57 -259 -85 -88 -28 -167 -54 -176 -59
-13 -7 -22 -53 -44 -222 -15 -117 -32 -250 -38 -295 -7 -45 -10 -85 -7 -88 3
-3 84 19 180 48 96 30 224 67 284 84 163 46 304 88 310 95 3 3 -8 72 -25 154
-17 82 -42 206 -57 277 -31 150 -20 144 -168 91z m60 -74 c8 -7 15 -29 15 -49
0 -48 -33 -81 -88 -88 -34 -5 -45 -1 -66 20 -35 35 -33 62 9 104 32 32 40 35
76 30 22 -3 46 -11 54 -17z m-370 -124 c28 -43 -12 -106 -69 -106 -39 0 -56
15 -56 51 0 68 90 109 125 55z m461 -187 c14 -28 23 -58 19 -67 -3 -8 0 -19 7
-23 24 -15 -6 -29 -133 -65 -108 -30 -231 -65 -427 -122 -39 -11 -56 -12 -64
-4 -18 18 -21 102 -6 166 l14 60 185 43 c168 39 280 58 351 62 24 1 31 -7 54
-50z"/>
<path d="M2300 4680 c-15 -28 -9 -34 16 -16 14 11 16 17 7 26 -8 9 -14 7 -23
-10z"/>
<path d="M1927 4563 c-12 -11 -8 -23 8 -23 8 0 15 7 15 15 0 16 -12 20 -23 8z"/>
<path d="M2390 4401 c0 -10 3 -32 6 -49 5 -23 10 -28 25 -25 23 6 23 5 -1 53
-23 44 -30 49 -30 21z"/>
<path d="M2249 4403 c-13 -3 -15 -15 -11 -61 2 -31 6 -59 8 -61 1 -2 20 1 41
6 35 9 38 12 36 43 -3 64 -25 86 -74 73z"/>
<path d="M2095 4371 l-30 -6 4 -65 c2 -36 4 -66 6 -68 1 -2 24 2 50 9 l47 12
-6 45 c-3 25 -6 53 -6 63 0 20 -12 22 -65 10z"/>
<path d="M1943 4337 c-29 -9 -33 -15 -43 -63 -16 -75 -7 -97 33 -88 64 14 63
12 52 89 l-10 71 -32 -9z"/>
<path d="M2810 4621 c-15 -28 -12 -104 4 -127 21 -28 29 -12 16 36 -8 30 -8
51 -1 72 13 38 13 38 1 38 -5 0 -14 -9 -20 -19z"/>
<path d="M2880 4571 c0 -56 16 -64 69 -33 l43 25 -43 23 c-61 32 -69 31 -69
-15z"/>
<path d="M2570 4188 c-19 -6 -89 -27 -155 -48 -66 -21 -160 -48 -210 -60 -49
-12 -162 -44 -249 -71 -88 -27 -164 -49 -170 -49 -6 0 -18 -5 -26 -10 -12 -8
7 -31 98 -119 62 -60 115 -105 117 -100 3 4 -1 36 -10 70 -20 78 -8 103 57
114 24 4 102 20 175 36 120 26 204 39 363 56 30 3 60 11 66 19 19 24 277 22
359 -3 11 -3 32 -19 47 -36 l28 -31 37 44 c21 24 44 52 51 62 8 10 25 31 38
45 35 38 31 53 -13 53 -79 1 -233 12 -374 25 -164 17 -180 17 -229 3z"/>
<path d="M2680 3926 c0 -14 2 -26 4 -26 2 0 28 -5 57 -11 77 -15 222 -39 237
-39 9 0 10 5 2 19 -5 11 -10 28 -10 39 0 29 -21 34 -162 40 l-128 5 0 -27z"/>
<path d="M2505 3909 c-33 -5 -94 -13 -135 -19 -41 -6 -129 -22 -197 -37 l-122
-27 6 -30 c3 -17 7 -33 9 -35 2 -3 48 6 102 18 53 13 104 24 112 25 8 2 34 8
56 15 42 11 92 22 197 42 50 10 57 14 57 35 0 13 -6 23 -12 23 -7 -1 -40 -5
-73 -10z"/>
<path d="M2250 3719 c-173 -37 -380 -80 -460 -94 -80 -14 -152 -28 -161 -31
-13 -4 -15 -47 -15 -367 1 -199 -1 -644 -3 -989 -3 -345 -3 -629 0 -631 6 -6
98 7 274 38 102 18 227 30 390 39 132 7 240 14 240 15 0 1 46 3 101 6 56 3
125 10 154 15 29 5 56 7 61 4 14 -8 11 127 -6 266 -26 221 -41 338 -55 430 -5
36 -12 99 -14 140 -3 41 -10 100 -16 130 -12 68 -98 815 -110 960 -10 124 -15
140 -44 139 -11 0 -163 -32 -336 -70z m328 -57 c0 -15 2 -43 5 -62 3 -19 14
-112 24 -207 15 -147 15 -175 3 -197 -7 -14 -21 -26 -31 -26 -41 0 -516 -127
-776 -207 -67 -21 -86 -14 -78 29 4 18 1 56 -5 83 -6 28 -13 73 -16 100 -5 63
-14 161 -19 200 -17 143 -19 132 17 149 18 8 53 17 78 20 91 11 161 26 406 85
137 34 270 61 296 61 26 0 50 5 53 10 12 19 44 -9 43 -38z m76 -690 c29 -57
52 -202 34 -216 -2 -2 -73 -22 -158 -46 -85 -23 -182 -50 -215 -60 -197 -60
-250 -74 -337 -90 -54 -9 -143 -18 -197 -19 l-100 -2 -7 27 c-6 22 -1 106 10
196 3 26 38 59 54 53 8 -3 96 17 196 45 196 55 296 82 366 100 74 18 211 38
277 39 59 1 63 -1 77 -27z m17 -395 c44 -30 60 -84 35 -122 -9 -14 -15 -29
-12 -33 9 -16 46 -303 51 -401 2 -57 9 -109 15 -116 6 -7 14 -29 17 -48 4 -30
1 -40 -22 -62 -23 -24 -32 -27 -73 -22 -31 3 -52 12 -64 27 -17 21 -23 22 -96
16 -42 -4 -95 -11 -117 -16 -37 -8 -100 -17 -382 -55 -61 -8 -131 -15 -156
-15 -37 0 -46 -4 -55 -25 -30 -66 -172 -33 -172 40 0 13 16 42 35 65 30 36 34
46 30 83 -7 60 -14 190 -14 280 -1 72 -3 78 -26 89 -36 16 -51 68 -31 110 15
32 64 68 90 68 8 0 25 -9 39 -20 32 -25 67 -25 181 0 50 12 129 30 176 40 89
20 127 28 301 60 90 16 111 24 139 50 38 36 65 38 111 7z"/>
<path d="M2410 3633 c-14 -2 -126 -29 -250 -58 -251 -60 -328 -75 -378 -75
-34 0 -35 0 -17 -20 20 -22 4 -25 230 30 195 48 479 110 499 110 8 0 18 5 21
10 6 10 -55 12 -105 3z"/>
<path d="M2470 3569 c-19 -5 -109 -24 -200 -44 -91 -19 -218 -48 -284 -65 -65
-16 -129 -30 -141 -30 -35 0 -37 -11 -19 -90 14 -65 18 -71 38 -67 277 65 298
68 317 51 18 -17 19 -15 19 39 0 32 -1 59 -2 60 -5 7 25 37 36 37 6 0 31 -19
56 -43 l44 -43 71 14 c150 28 140 23 138 68 -6 81 -15 124 -26 123 -7 -1 -28
-5 -47 -10z"/>
<path d="M1724 3450 c2 -8 9 -64 16 -125 28 -269 67 -414 57 -215 -7 150 -35
310 -59 335 -13 13 -17 15 -14 5z"/>
<path d="M2251 3294 c3 -66 1 -78 -14 -88 -16 -9 -25 -4 -64 39 l-45 49 -86
-18 c-48 -9 -112 -24 -142 -33 l-55 -15 4 -45 c3 -42 4 -44 22 -27 13 11 28
15 48 11 17 -4 33 -2 36 3 8 13 52 13 60 -1 9 -13 -42 -87 -65 -94 -23 -7 -66
10 -78 31 -8 14 -11 7 -13 -29 -2 -26 0 -47 4 -47 5 0 79 22 165 48 86 27 244
71 350 97 l192 49 -6 50 c-3 28 -7 61 -9 72 l-5 21 -122 -23 -123 -24 -22 25
c-12 14 -25 25 -29 25 -3 0 -5 -34 -3 -76z"/>
<path d="M2582 2870 c1 -49 5 -90 8 -90 3 0 14 3 25 6 19 5 20 11 15 62 -7 59
-27 112 -42 112 -6 0 -8 -40 -6 -90z"/>
<path d="M2458 2943 c-14 -4 -16 -16 -11 -101 3 -53 6 -98 7 -99 1 -1 20 4 43
10 l42 11 -5 80 c-3 45 -7 87 -10 94 -3 12 -32 14 -66 5z"/>
<path d="M2295 2916 l-50 -12 4 -110 c2 -60 4 -110 5 -111 1 -1 27 6 59 15
l57 17 0 61 c0 72 -10 154 -19 153 -3 -1 -28 -7 -56 -13z"/>
<path d="M2100 2866 l-45 -12 4 -110 c1 -60 4 -111 6 -112 2 -2 29 2 61 9 l57
13 -6 96 c-6 94 -13 131 -26 129 -3 -1 -26 -6 -51 -13z"/>
<path d="M1923 2817 l-43 -10 0 -109 0 -110 30 6 c17 3 43 8 58 11 28 6 28 6
21 58 -4 29 -8 78 -8 110 -1 31 -4 56 -8 56 -5 -1 -27 -6 -50 -12z"/>
<path d="M1760 2770 c-29 -7 -37 -33 -39 -122 l-1 -58 40 0 40 0 -7 93 c-3 50
-6 92 -7 93 -1 0 -12 -2 -26 -6z"/>
<path d="M2579 2523 c-15 -40 -8 -67 19 -71 27 -4 62 23 62 48 0 21 -31 50
-54 50 -9 0 -21 -12 -27 -27z"/>
<path d="M2386 2469 c-55 -10 -116 -21 -135 -23 -20 -2 -67 -11 -106 -20 -38
-9 -81 -17 -95 -20 -14 -2 -61 -13 -105 -24 -44 -12 -93 -22 -109 -24 -24 -2
-31 -9 -38 -34 -5 -19 -18 -35 -34 -43 l-27 -12 7 -154 c9 -229 15 -273 37
-280 10 -3 24 -19 31 -35 15 -36 35 -37 184 -15 54 8 135 19 179 24 44 5 132
18 195 29 63 12 144 24 180 27 40 5 70 13 77 23 7 8 25 22 40 31 20 13 27 25
28 49 1 27 -3 32 -23 32 -26 0 -92 61 -92 84 0 18 -60 136 -69 136 -5 0 -11
-26 -15 -58 -9 -81 -26 -102 -80 -102 -27 0 -48 6 -56 15 -14 17 -85 20 -96 4
-3 -6 -24 -9 -45 -7 -28 2 -39 0 -39 -10 0 -10 -12 -13 -42 -10 -38 3 -43 0
-48 -22 -5 -22 -12 -25 -47 -24 -32 0 -43 -4 -46 -18 -3 -11 -14 -18 -30 -18
-13 0 -44 -7 -68 -15 -58 -21 -77 -14 -54 21 13 21 14 28 5 34 -14 9 -10 22
16 58 16 22 16 22 -16 22 -21 0 -30 4 -28 13 6 18 60 20 83 4 17 -13 18 -18 7
-42 -11 -24 -10 -29 5 -41 22 -17 24 -17 47 1 15 11 19 30 21 99 4 97 15 126
50 126 24 0 25 -2 25 -80 0 -73 9 -97 25 -69 4 5 17 9 28 8 12 -1 33 3 47 9
19 7 30 7 47 -4 18 -11 23 -11 33 1 7 9 26 14 44 12 l31 -2 -3 90 c-3 94 5
122 32 112 12 -5 16 -21 16 -66 0 -68 33 -171 55 -171 34 0 60 127 33 158 -35
39 -33 102 2 102 14 0 23 -12 31 -40 9 -30 21 -44 48 -57 29 -15 44 -34 77
-101 22 -45 51 -93 63 -105 l23 -22 -7 85 c-4 47 -8 101 -10 121 -1 21 -9 69
-16 108 l-12 71 -47 0 c-51 0 -64 9 -75 53 -8 31 -7 31 -139 6z m-33 -84 c7
-18 -6 -27 -27 -19 -19 7 -21 20 -3 27 20 9 25 8 30 -8z"/>
<path d="M1692 2378 c-22 -22 -11 -78 16 -78 8 0 23 7 33 16 17 15 17 19 3 45
-16 31 -33 36 -52 17z"/>
<path d="M2677 1872 c-27 -30 -22 -54 11 -50 31 3 42 37 19 56 -11 9 -18 8
-30 -6z"/>
<path d="M1705 1776 c-21 -32 -10 -56 26 -56 33 0 44 18 35 55 -8 32 -40 33
-61 1z"/>
<path d="M2715 3733 c13 -135 27 -261 50 -473 14 -124 28 -247 30 -275 3 -27
10 -79 15 -115 5 -36 16 -121 25 -190 31 -253 46 -366 55 -425 18 -109 41
-349 43 -440 l2 -90 38 -3 c20 -2 37 -1 37 1 0 2 -8 19 -17 38 -22 44 -28 127
-13 173 15 45 78 126 113 145 15 8 27 20 27 27 0 7 15 32 33 56 53 69 137 196
146 221 9 22 107 164 137 198 11 12 12 23 5 42 -6 14 -7 41 -4 60 5 30 0 41
-34 78 -21 24 -55 64 -73 89 -19 25 -45 56 -58 70 -12 14 -42 53 -65 87 -40
59 -77 82 -77 48 0 -19 -9 -19 -30 0 -10 9 -28 18 -41 20 -28 5 -59 39 -59 64
0 10 -11 28 -24 40 -14 13 -30 36 -36 52 -18 42 -28 27 -20 -27 13 -86 -39
-162 -85 -124 -37 31 -63 233 -32 258 28 24 64 24 86 1 l21 -23 0 60 c0 135
100 284 191 284 12 0 27 7 34 17 11 14 19 15 76 4 35 -7 74 -15 85 -17 19 -5
21 -2 17 20 -6 30 -49 46 -123 46 -55 0 -243 23 -360 44 -128 23 -121 26 -115
-41z m213 -15 c10 -9 8 -16 -9 -34 -12 -13 -30 -26 -39 -29 -27 -9 -43 -55
-45 -131 -2 -75 -8 -94 -30 -94 -38 0 -48 34 -61 198 -9 111 -4 117 95 108 42
-4 81 -12 89 -18z"/>
<path d="M2790 3649 l0 -54 16 30 c8 17 25 38 37 47 l22 18 -22 0 c-12 0 -28
3 -37 6 -13 5 -16 -3 -16 -47z"/>
<path d="M3085 3568 c-53 -46 -77 -101 -83 -186 -6 -86 13 -143 59 -188 l30
-29 117 3 c160 4 155 1 119 70 -25 49 -28 65 -24 117 4 59 32 130 65 168 8 9
13 19 11 21 -8 7 -216 56 -236 56 -12 0 -38 -14 -58 -32z"/>
<path d="M3570 3510 c0 -6 -16 -10 -38 -9 -47 3 -85 -22 -112 -73 -77 -146 23
-299 138 -212 68 52 92 165 53 250 -19 41 -41 65 -41 44z m14 -49 c29 -32 39
-96 21 -131 -33 -64 -116 -83 -154 -34 -36 46 -21 107 39 158 37 31 70 33 94
7z"/>
<path d="M3506 3415 c-32 -35 -35 -80 -5 -95 45 -25 80 57 45 105 -13 18 -15
18 -40 -10z"/>
<path d="M2834 3304 c3 -7 8 -44 11 -83 5 -85 24 -132 24 -61 0 61 -14 129
-29 143 -9 9 -11 9 -6 1z"/>
<path d="M3515 3133 c-11 -3 -24 -12 -30 -20 -13 -17 -74 -32 -135 -33 -70 -1
-76 -10 -38 -58 164 -206 150 -191 194 -192 22 0 65 4 95 10 30 5 82 11 116
12 35 2 63 4 63 6 0 5 -85 137 -129 200 -51 74 -78 89 -136 75z"/>
<path d="M3830 2802 c-41 -20 -60 -53 -60 -103 0 -63 38 -87 127 -80 21 2 55
79 48 110 -6 27 -56 91 -72 91 -4 0 -24 -8 -43 -18z"/>
<path d="M3662 2790 c-29 -4 -54 -10 -55 -11 -2 -2 -19 -23 -40 -47 -27 -30
-37 -51 -37 -75 0 -49 15 -57 98 -57 67 0 73 2 67 18 -19 45 -17 99 4 140 12
23 20 41 19 41 -2 -1 -27 -5 -56 -9z"/>
<path d="M3808 2543 c-18 -4 -129 -148 -193 -248 -48 -76 -125 -205 -125 -211
0 -2 15 -4 33 -4 39 0 90 -29 113 -65 l17 -27 14 25 c12 24 63 157 164 426 21
58 39 106 39 108 0 4 -41 2 -62 -4z"/>
<path d="M3503 2528 c-31 -40 -123 -178 -138 -208 -10 -19 -40 -68 -67 -109
-27 -41 -45 -77 -41 -81 4 -4 32 -14 62 -24 44 -13 56 -14 63 -4 5 7 25 42 45
78 36 62 164 253 216 322 l26 33 -78 3 c-55 2 -81 -1 -88 -10z"/>
<path d="M1457 2162 c-43 -44 -77 -133 -77 -201 0 -74 44 -138 108 -156 l22
-6 0 200 c0 111 -4 201 -8 201 -4 0 -24 -17 -45 -38z"/>
<path d="M3159 2046 c-57 -39 -92 -101 -96 -171 -6 -98 5 -108 165 -155 34
-10 62 -16 62 -13 0 2 -9 16 -19 29 -45 57 -29 158 40 253 20 29 25 43 17 45
-7 3 -35 11 -62 20 -64 21 -65 20 -107 -8z"/>
<path d="M3780 2025 c-7 -16 -21 -50 -31 -75 -15 -40 -21 -45 -47 -44 -28 2
-30 -2 -41 -51 -15 -66 -55 -121 -112 -152 l-44 -25 60 7 c33 4 105 13 160 19
l100 11 -1 45 c0 25 -3 72 -7 105 -4 33 -11 89 -16 125 -7 64 -8 65 -21 35z"/>
<path d="M3429 1993 c-48 -43 -77 -97 -85 -156 -8 -58 21 -93 87 -102 40 -5
50 -2 77 19 41 35 62 84 62 146 0 65 -20 105 -61 119 -18 6 -34 11 -35 11 -2
0 -22 -17 -45 -37z m101 -23 c25 -25 27 -86 4 -133 -14 -30 -34 -45 -96 -75
-5 -2 -8 3 -8 12 0 9 -7 16 -15 16 -44 0 -42 98 2 151 43 50 82 60 113 29z"/>
<path d="M3458 1913 c-23 -25 -32 -69 -18 -78 17 -11 50 27 53 60 2 34 -14 42
-35 18z"/>
<path d="M2815 1630 c-11 -4 -53 -10 -94 -14 -40 -3 -79 -10 -85 -14 -12 -7
-20 -8 -134 -10 l-73 -2 5 -34 c3 -19 10 -147 16 -283 12 -309 18 -361 39
-372 9 -4 68 -14 131 -21 63 -7 153 -18 200 -25 47 -6 87 -10 89 -8 2 1 -1 13
-7 26 -20 41 -47 490 -39 644 5 90 4 104 -11 112 -9 5 -26 5 -37 1z"/>
<path d="M2939 1569 c-3 -154 -1 -205 15 -389 18 -214 36 -383 40 -388 7 -6
190 59 268 95 46 22 97 43 113 47 17 4 39 13 51 21 19 12 20 19 13 71 -4 31
-11 168 -15 304 l-7 247 -71 11 c-39 6 -123 16 -186 21 -63 6 -139 14 -167 17
l-53 7 -1 -64z"/>
<path d="M2143 1583 l-71 -4 4 -62 c2 -34 9 -105 14 -157 5 -52 12 -138 15
-190 5 -83 20 -198 31 -238 3 -10 8 -10 26 1 52 32 136 75 172 87 l39 13 -7
216 c-3 119 -9 244 -13 279 l-6 62 -66 -2 c-36 -1 -98 -4 -138 -5z"/>
<path d="M1865 1544 c-44 -8 -83 -18 -87 -22 -5 -5 -13 -69 -18 -142 -6 -74
-12 -155 -15 -180 -2 -25 -8 -118 -11 -207 l-7 -163 139 -1 c76 -1 152 -3 167
-5 25 -3 28 0 23 19 -23 96 -51 397 -56 607 0 30 -3 64 -5 75 -2 11 -4 23 -4
28 -1 10 -32 8 -126 -9z"/>
<path d="M2290 910 c-41 -22 -89 -48 -107 -57 -19 -10 -35 -27 -38 -42 -5 -19
-20 -33 -55 -49 -54 -26 -178 -118 -216 -160 -13 -15 -30 -50 -39 -79 -19 -63
-20 -163 -2 -163 12 0 204 55 245 71 16 6 22 17 22 41 1 131 107 310 236 399
32 22 44 37 44 54 0 14 -3 25 -7 25 -5 0 -42 -18 -83 -40z"/>
<path d="M3400 861 c-25 -10 -61 -28 -80 -39 -19 -11 -81 -36 -137 -56 -56
-19 -115 -42 -130 -50 -42 -21 -128 -116 -157 -173 -26 -53 -62 -180 -53 -189
2 -3 41 9 85 26 44 17 112 40 151 51 40 10 127 42 194 70 67 28 143 58 170 66
l47 16 0 49 c0 30 -4 47 -10 43 -5 -3 -10 -13 -10 -20 0 -24 -45 -46 -98 -48
-61 -2 -89 19 -98 74 -5 29 0 40 30 75 41 48 115 76 147 56 17 -11 19 -9 19
28 0 46 -5 47 -70 21z"/>
<path d="M2405 811 c-16 -10 -38 -27 -48 -39 -18 -20 -18 -20 15 -31 18 -5
112 -19 208 -31 96 -11 200 -24 230 -29 l55 -9 32 36 c17 20 28 40 25 43 -4 4
-36 9 -72 13 -36 3 -75 8 -86 10 -12 2 -66 9 -120 16 -55 6 -122 18 -151 26
-62 17 -52 18 -88 -5z"/>
<path d="M3402 778 c-15 -15 -16 -104 -2 -113 21 -13 40 84 22 112 -6 10 -11
10 -20 1z"/>
<path d="M1572 754 c-24 -14 -42 -27 -40 -29 2 -1 80 -5 174 -9 95 -3 178 -8
186 -11 7 -3 36 10 63 30 l50 35 -50 1 c-56 1 -103 0 -222 -6 -48 -2 -83 0
-83 6 0 17 -34 9 -78 -17z"/>
<path d="M3340 731 c-12 -24 -13 -58 -1 -65 5 -3 11 14 13 39 2 25 2 45 1 45
-1 0 -7 -9 -13 -19z"/>
<path d="M2277 682 c-10 -10 -17 -23 -17 -29 0 -12 83 -33 130 -33 15 0 62 -7
104 -14 41 -8 110 -16 153 -17 42 -1 92 -5 110 -9 26 -6 38 -4 56 11 19 16 20
20 7 29 -8 5 -28 10 -45 10 -55 0 -410 49 -439 59 -36 14 -40 14 -59 -7z"/>
<path d="M1470 659 c0 -10 148 -28 258 -32 83 -3 94 -1 111 17 l20 21 -195 0
c-107 0 -194 -3 -194 -6z"/>
<path d="M1447 583 c-2 -5 -7 -25 -11 -46 -5 -27 -3 -38 6 -41 7 -3 83 -7 170
-9 l156 -4 5 26 c2 14 7 33 11 41 5 13 -11 15 -111 18 -65 2 -140 8 -167 13
-58 11 -54 11 -59 2z"/>
<path d="M2211 559 c-19 -55 -18 -56 72 -57 79 -1 142 -8 366 -38 57 -7 107
-12 111 -9 5 3 13 18 18 34 10 29 9 30 -27 36 -21 3 -72 8 -115 10 -43 2 -106
8 -139 14 -34 6 -96 15 -137 21 -41 5 -89 13 -106 16 -28 5 -32 3 -43 -27z"/>
<path d="M3475 532 c-26 -22 -310 -135 -400 -158 -92 -23 -245 -87 -245 -101
0 -18 2 -17 110 18 52 17 102 33 110 35 26 7 293 95 337 111 55 20 106 64 102
86 -3 11 -8 15 -14 9z"/>
<path d="M2192 433 c2 -13 16 -20 48 -24 130 -17 220 -30 260 -38 25 -5 74
-15 110 -22 109 -21 158 -49 112 -63 -21 -7 -48 -4 -157 17 -102 20 -335 57
-357 57 -10 0 -18 -6 -18 -14 0 -19 232 -74 387 -92 71 -8 138 -16 151 -19 21
-5 22 -3 22 64 0 38 2 76 6 84 6 15 -9 18 -181 37 -49 5 -121 14 -160 19 -38
6 -105 10 -148 11 -69 0 -78 -2 -75 -17z"/>
<path d="M1420 401 c0 -17 5 -33 11 -36 5 -4 82 -9 170 -12 l159 -4 0 40 0 41
-170 0 -170 0 0 -29z"/>
<path d="M2015 360 c-33 -10 -87 -26 -120 -36 -73 -21 -68 -18 -60 -43 9 -30
52 -27 165 9 51 16 95 32 97 34 6 6 -8 56 -16 55 -3 0 -33 -9 -66 -19z"/>
<path d="M1434 266 c4 -16 12 -34 19 -38 14 -9 249 -9 292 1 25 5 29 11 27 31
-2 14 -6 27 -9 30 -2 3 -79 5 -170 6 l-165 1 6 -31z"/>
</g>
</svg>
